<svg xmlns="http://www.w3.org/2000/svg" xmlns:xlink="http://www.w3.org/1999/xlink" id="Layer_1" x="0px" y="0px" viewBox="0 0 197.15 51" style="enable-background:new 0 0 197.15 51;" xml:space="preserve"><style type="text/css">	.st0{fill:#FFFFFF;}</style><g>	<g>		<g>			<path class="st0" d="M14.52,0.6C6.51,0.6,0,7.12,0,15.13v20.35C0,43.48,6.51,50,14.52,50c8.01,0,14.52-6.52,14.52-14.52v-6.65    c-0.46-0.07-0.98-0.11-1.54-0.11c-1.44,0-3.09,0.3-4.75,1.23v5.53c0,4.54-3.69,8.23-8.23,8.23h-0.09l-0.79,2.34l-0.41-2.44    c-3.93-0.62-6.95-4.03-6.95-8.13V15.13c0-4.54,3.7-8.24,8.24-8.24s8.23,3.7,8.23,8.24v3.18c1.87-0.85,3.97-1.44,6.29-1.76v-1.42    C29.05,7.12,22.53,0.6,14.52,0.6z"></path>		</g>		<g>			<g>				<path d="M31.37,31.32v-3.48l-0.54-0.15c-0.45-0.13-1.06-0.27-1.78-0.36c-0.47-0.06-0.99-0.1-1.54-0.1     c-1.45,0-3.09,0.26-4.75,1.03c-3.08,1.43-6.24,4.62-8.45,11.17l-0.17,0.51l-0.09-0.53c-0.06-0.37-1.44-9.02,3.61-15.35     c1.36-1.71,3.07-3.08,5.1-4.1c1.84-0.92,3.93-1.56,6.29-1.9c0.53-0.08,1.08-0.14,1.64-0.19l0.68-0.06v-4.02l12.99,8.77     L31.37,31.32z"></path>			</g>		</g>	</g>	<g>		<path class="st0" d="M58.59,32.78c-4.1,0-7.59-2.17-7.59-7.01V19.5c0-4.84,3.52-7.04,7.53-7.04c2.12,0,4.23,0.69,5.88,1.84   c0.19,0.14,0.22,0.33,0.08,0.55l-1.29,1.87c-0.14,0.25-0.33,0.25-0.58,0.11c-1.24-0.85-2.72-1.24-4.1-1.24   c-2.67,0-4.21,1.48-4.21,3.93v6.16c0,2.5,1.57,3.96,4.23,3.96c1.57,0,3.27-0.5,4.56-1.43c0.22-0.17,0.41-0.14,0.55,0.11l1.29,1.87   c0.14,0.22,0.14,0.41-0.05,0.58C63.18,32.12,60.87,32.78,58.59,32.78z"></path>		<path class="st0" d="M73.19,32.78c-3.79,0-6.27-2.14-6.27-5.55v-3.68c0-3.46,2.48-5.66,6.27-5.66s6.27,2.2,6.27,5.66v3.68   C79.46,30.64,76.98,32.78,73.19,32.78z M73.19,29.92c1.95,0,3.05-0.94,3.05-2.7v-3.68c0-1.81-1.1-2.8-3.05-2.8   c-1.98,0-3.05,0.99-3.05,2.8v3.68C70.14,28.99,71.21,29.92,73.19,29.92z"></path>		<path class="st0" d="M82.84,32.45c-0.27,0-0.41-0.14-0.41-0.41V19.45c0-0.22,0.08-0.38,0.3-0.49c1.59-0.69,3.52-1.07,5.47-1.07   c3.79,0,6.38,1.76,6.38,6.16v8c0,0.27-0.14,0.41-0.38,0.41H91.8c-0.25,0-0.41-0.14-0.41-0.41v-7.95c0-2.58-1.18-3.35-3.19-3.35   c-0.94,0-1.95,0.14-2.58,0.3v11c0,0.27-0.14,0.41-0.41,0.41H82.84z"></path>		<path class="st0" d="M103.18,29.87c0.25,0,0.69-0.03,1.13-0.05c0.28,0,0.44,0.14,0.44,0.38v2.09c0,0.22-0.11,0.41-0.39,0.44   c-0.47,0.03-1.04,0.05-1.46,0.05c-2.86,0-5.09-1.46-5.09-5.09V15.13c0-0.25,0.14-0.38,0.41-0.38h2.09c0.22,0,0.39,0.14,0.41,0.36   l0.25,3.3h2.94c0.25,0,0.41,0.14,0.41,0.39v2.01c0,0.25-0.17,0.38-0.41,0.38h-2.91v6.3C101.01,28.99,101.78,29.87,103.18,29.87z"></path>		<path class="st0" d="M118.5,26.29c0,0.25-0.14,0.38-0.41,0.38h-8.36v0.77c0,1.68,1.15,2.53,2.91,2.53c1.71,0,2.86-0.58,3.88-1.26   c0.19-0.14,0.41-0.11,0.55,0.08l1.13,1.51c0.17,0.19,0.14,0.41-0.08,0.58c-1.46,1.16-3.24,1.9-5.58,1.9   c-3.11,0-6.02-1.71-6.02-5.36v-3.9c0-4.04,3.03-5.64,6.05-5.64c3,0,5.94,1.59,5.94,5.64V26.29z M112.56,20.68   c-1.62,0-2.83,0.77-2.83,2.8v0.71h5.66v-0.71C115.39,21.48,114.1,20.68,112.56,20.68z"></path>		<path class="st0" d="M121.74,32.45c-0.28,0-0.41-0.14-0.41-0.41V19.45c0-0.22,0.08-0.38,0.3-0.49c1.59-0.69,3.52-1.07,5.47-1.07   c3.79,0,6.38,1.76,6.38,6.16v8c0,0.27-0.14,0.41-0.38,0.41h-2.39c-0.25,0-0.41-0.14-0.41-0.41v-7.95c0-2.58-1.18-3.35-3.19-3.35   c-0.93,0-1.95,0.14-2.58,0.3v11c0,0.27-0.14,0.41-0.41,0.41H121.74z"></path>		<path class="st0" d="M142.08,29.87c0.25,0,0.69-0.03,1.13-0.05c0.28,0,0.44,0.14,0.44,0.38v2.09c0,0.22-0.11,0.41-0.38,0.44   c-0.47,0.03-1.04,0.05-1.46,0.05c-2.86,0-5.09-1.46-5.09-5.09V15.13c0-0.25,0.14-0.38,0.41-0.38h2.09c0.22,0,0.38,0.14,0.41,0.36   l0.25,3.3h2.94c0.25,0,0.41,0.14,0.41,0.39v2.01c0,0.25-0.17,0.38-0.41,0.38h-2.91v6.3C139.91,28.99,140.68,29.87,142.08,29.87z"></path>		<path d="M147,32.45c-0.22,0-0.33-0.11-0.33-0.3V13.1c0-0.19,0.11-0.3,0.33-0.3h1.7c0.19,0,0.3,0.11,0.3,0.3v9.1l8.5-9.21   c0.14-0.14,0.25-0.19,0.41-0.19h2.2c0.28,0,0.38,0.19,0.19,0.38l-7.89,8.47l8.44,10.42c0.16,0.22,0.05,0.38-0.19,0.38h-2.23   c-0.17,0-0.3-0.05-0.38-0.19l-7.2-8.96l-1.84,1.9v6.96c0,0.19-0.11,0.3-0.3,0.3H147z"></path>		<path d="M164.16,15.6c-0.77,0-1.37-0.58-1.37-1.35c0-0.8,0.6-1.35,1.37-1.35c0.77,0,1.35,0.55,1.35,1.35   C165.51,15.02,164.93,15.6,164.16,15.6z M163.34,32.45c-0.22,0-0.33-0.11-0.33-0.3V18.57c0-0.19,0.11-0.33,0.33-0.33h1.62   c0.19,0,0.3,0.14,0.3,0.33v13.58c0,0.19-0.11,0.3-0.3,0.3H163.34z"></path>		<path d="M169.33,32.45c-0.19,0-0.3-0.11-0.3-0.3V19.39c0-0.17,0.05-0.3,0.22-0.39c1.57-0.66,3.38-1.07,5.28-1.07   c3.68,0,6.19,1.73,6.19,5.94v8.28c0,0.19-0.11,0.3-0.33,0.3h-1.62c-0.19,0-0.3-0.11-0.3-0.3v-8.22c0-2.86-1.46-3.96-3.93-3.96   c-1.16,0-2.39,0.22-3.25,0.5v11.69c0,0.19-0.11,0.3-0.33,0.3H169.33z"></path>		<path d="M189.73,37.95c-2.2,0-3.85-0.69-5.31-1.9c-0.14-0.11-0.14-0.25-0.03-0.44l0.8-1.18c0.11-0.17,0.28-0.19,0.44-0.05   c1.13,0.91,2.45,1.54,4.1,1.54c2.47,0,3.63-1.24,3.55-4.04v-0.66c-1.02,0.5-2.36,0.8-3.52,0.8c-3.3,0-5.91-1.79-5.91-5.61v-2.75   c0-4.15,2.72-5.72,6.16-5.72c1.92,0,3.85,0.44,5.28,1.07c0.17,0.06,0.25,0.17,0.25,0.36v12.7   C195.53,35.67,193.83,37.95,189.73,37.95z M189.92,29.98c1.24,0,2.58-0.3,3.35-0.83v-8.72c-0.8-0.27-2.23-0.47-3.24-0.47   c-2.36,0-3.9,0.96-3.9,3.68v2.75C186.13,29.04,187.75,29.98,189.92,29.98z"></path>	</g></g></svg>